
<svg width="32" height="32" viewBox="0 0 1024 1024" xmlns="http://www.w3.org/2000/svg" xmlns:xlink="http://www.w3.org/1999/xlink">
    <style>
        @media (prefers-color-scheme: dark){
            path{ fill: #FFF; }
        }
    </style>
    <path id="favicon" stroke="none" d="M 64.70163 456.925537 C 63.281967 422.698181 62.956009 372.217896 63.061378 322.664917 C 63.166725 273.112 63.643452 222.224243 64.120766 209.581177 L 64.988617 186.593689 L 80.098969 211 C 88.409645 224.423462 101.01429 243.706482 108.109291 253.851196 C 115.204269 263.995972 127.558945 280.549805 135.564117 290.637634 C 143.569305 300.725464 157.142258 316.055603 165.726212 324.70459 C 174.310181 333.353516 185.80278 343.79071 191.26532 347.898254 C 196.727859 352.005737 206.080215 357.835388 212.048325 360.852966 C 218.35257 364.040466 227.066681 367.084167 232.84462 368.116699 C 239.109283 369.236267 248.745636 369.60553 258.883331 369.114441 C 270.375366 368.557739 283.901764 366.415283 306.191315 361.62146 C 335.098572 355.404236 338.978851 354.89624 358.688385 354.748413 C 376.156067 354.617371 381.461456 355.077576 388.286163 357.315369 C 392.859558 358.814941 400.202026 362.393799 404.602814 365.268494 C 409.003601 368.143066 416.688019 374.577881 421.67926 379.567993 C 426.670532 384.558167 434.563416 393.740967 439.219025 399.974182 C 443.874634 406.20752 451.376282 417.552917 455.889404 425.186279 C 460.402496 432.819641 468.102386 447.193298 473.000214 457.127686 C 477.898041 467.062073 485.199585 483.171143 489.225891 492.925659 C 493.252197 502.680176 499.624786 519.148987 503.387268 529.523071 C 508.559296 543.783691 510.772949 548.28009 512.461609 547.954834 C 513.873901 547.682861 516.671265 542.052368 520.07019 532.640015 C 523.026489 524.45343 529.037598 508.81665 533.428162 497.891602 C 537.818665 486.966492 546.152527 468.450684 551.947754 456.745239 C 557.742981 445.039795 565.734131 430.035583 569.705872 423.402527 C 573.677429 416.76947 581.295471 405.496582 586.634583 398.351807 C 591.973755 391.20697 600.897766 381.143372 606.465881 375.98822 C 612.478882 370.421204 620.688965 364.593689 626.685242 361.63678 C 632.237854 358.898682 640.690613 355.935425 645.469116 355.05188 C 650.804993 354.065125 660.659058 353.778259 671.00824 354.308228 C 681.417908 354.841248 695.451965 356.815674 707.7229 359.473511 C 718.647949 361.839905 735.248413 365.129883 744.612671 366.78479 C 757.785522 369.112671 765.331421 369.644348 777.955444 369.133972 C 790.892395 368.610962 796.308044 367.714966 804.10144 364.808472 C 809.507629 362.792358 819.3974 357.433411 826.078735 352.89978 C 832.76001 348.366211 844.832336 338.298157 852.906067 330.526184 C 860.979797 322.754272 873.519409 309.346252 880.771912 300.730591 C 888.024414 292.114868 899.53949 277.403931 906.361084 268.039612 C 913.182678 258.675293 923.997009 243.032532 930.393005 233.278015 C 936.789063 223.523499 946.129395 208.670471 951.149292 200.27124 L 960.276306 185 L 960.638184 320.747192 L 961 456.494446 L 960.638184 456.796692 C 960.439087 456.962891 949.256226 455.642395 935.787292 453.862183 C 922.318359 452.08197 902.525513 449.936279 891.803284 449.094055 C 881.080994 448.25177 862.09259 447.158997 849.606812 446.66571 C 836.71106 446.156189 816.920959 446.468811 803.7901 447.389404 C 791.076721 448.280762 773.199341 450.26825 764.062622 451.806091 C 754.925842 453.343872 740.293823 456.894226 731.546997 459.695618 C 722.80011 462.49707 711.784729 467.129333 707.06842 469.989624 C 702.352112 472.849915 693.457214 479.476807 687.302124 484.716125 C 681.146973 489.955383 671.261719 500.021851 665.334717 507.085999 C 659.407776 514.150146 650.815491 525.506104 646.240723 532.321655 C 641.665955 539.137085 634.021667 551.417358 629.253479 559.611084 C 624.485291 567.804932 616.811768 582.489868 612.201111 592.244385 C 607.590576 601.998901 599.862427 619.782043 595.027405 631.762451 C 590.192505 643.742859 582.162964 665.770325 577.184082 680.712402 C 572.2052 695.654541 565.189758 718.30542 561.59436 731.047852 C 557.998962 743.790222 552.250854 765.817688 548.820923 779.997803 C 545.390869 794.177856 539.972473 818.549316 536.779907 834.156494 C 533.587341 849.763794 528.778442 875.302856 526.093262 890.910095 C 523.408142 906.517334 519.599243 930.460266 517.62915 944.116577 C 515.658936 957.772949 513.547791 972.138672 512.937622 976.040466 C 511.828339 983.134644 511.828339 983.134644 510.858398 972.493347 C 510.324921 966.640686 507.917358 949.08252 505.50824 933.475281 C 503.099152 917.868042 498.896667 892.648193 496.169373 877.431152 C 493.442108 862.21405 488.700317 837.951904 485.632111 823.515259 C 482.563904 809.078552 477.52359 787.051025 474.431427 774.565308 C 471.339233 762.079468 465.627777 740.690491 461.739258 727.03418 C 457.850739 713.377808 451.374634 692.308044 447.347961 680.212463 C 443.321228 668.116821 435.862061 647.685547 430.771942 634.80957 C 425.681854 621.933594 417.407196 602.779297 412.383789 592.244385 C 407.360443 581.709534 399.110107 565.959229 394.049744 557.243835 C 388.989349 548.528381 380.080475 534.665894 374.252167 526.438293 C 368.42392 518.210693 357.824371 505.3797 350.697662 497.924988 C 343.570892 490.470398 333.833923 481.410217 329.059845 477.791443 C 324.285767 474.172607 315.189178 468.760193 308.845154 465.763855 C 302.50116 462.767517 291.327789 458.732605 284.015472 456.797363 C 276.703156 454.862122 264.654816 452.321228 257.241364 451.150879 C 249.827911 449.980469 233.546722 448.299744 221.060959 447.416016 C 207.869614 446.4823 187.95784 446.191833 173.529831 446.722778 C 159.873505 447.22522 138.165253 448.607971 125.289291 449.795471 C 112.41333 450.982971 93.513664 453.072998 83.290039 454.440063 L 64.70163 456.925537 Z"/>
</svg>
