<?xml version="1.0" encoding="UTF-8"?>
<!-- Generated by Pixelmator Pro 3.3.11 -->
<svg width="1024" height="1024" viewBox="0 0 1024 1024" xmlns="http://www.w3.org/2000/svg">
    <style>
        @media (prefers-color-scheme: dark){
            #favicon {
                fill: #FFF;
            }
        }    
    </style>
    <path id="favicon" fill-rule="evenodd" stroke="none" d="M 500.12619 1000 C 499.745483 1000 498.898468 996.962524 498.243896 993.25 C 497.589325 989.537476 495.665161 977.724976 493.967957 967 C 492.270752 956.275024 489.528778 939.625 487.874695 930 C 486.220612 920.375 483.304138 903.950012 481.393646 893.5 C 479.483185 883.049988 477.241364 870.674988 476.411865 866 C 475.582336 861.325012 471.97406 842.875 468.393463 825 C 464.812836 807.125 459.897125 783.5 457.469635 772.5 C 455.042145 761.5 451.42038 745.299988 449.421265 736.5 C 447.422119 727.700012 442.715424 708.212036 438.961914 693.193481 C 435.208435 678.174805 430.928833 661.524841 429.451721 656.193481 C 427.974609 650.862061 424.302643 637.950012 421.291779 627.5 C 418.280945 617.049988 413.331207 600.849976 410.292419 591.5 C 407.253632 582.150024 401.834381 566.400024 398.249634 556.5 C 394.664886 546.599976 389.454437 533.099976 386.670837 526.5 C 383.887238 519.900024 378.327393 507.93158 374.315613 499.903564 C 370.303833 491.875549 363.436462 479.888916 359.05481 473.266602 C 354.673126 466.644287 347.524841 457.462646 343.169678 452.862976 C 338.814514 448.263367 331.171722 440.94696 326.185669 436.60437 C 321.199615 432.261841 312.930603 425.729797 307.810059 422.088745 C 302.689514 418.447693 295.799988 413.84082 292.5 411.851196 C 289.200012 409.861572 283.332916 406.648499 279.462067 404.71106 C 275.591187 402.773621 268.841187 399.825378 264.462067 398.159485 C 260.082916 396.49353 253.350006 394.213623 249.5 393.092957 C 245.649994 391.972351 238.299393 390.347534 233.165329 389.4823 C 227.582535 388.541382 217.936218 387.913635 209.165329 387.92041 C 199.044022 387.928223 190.977371 388.548401 183.131119 389.922058 C 176.878235 391.016663 166.620209 393.560059 160.335495 395.574036 C 154.050766 397.587952 143.191757 402.069214 136.204361 405.532349 C 129.216965 408.995544 118.779297 415.130005 113.009544 419.16449 C 107.239792 423.199036 102.177292 426.650024 101.759544 426.833313 C 101.341797 427.016663 101.01619 364.916687 101.035973 288.833313 C 101.071953 150.5 101.071953 150.5 103.099998 153 C 104.215416 154.375 107.281548 158.424988 109.913612 162 C 112.545685 165.575012 118.819695 172.418152 123.855865 177.20697 C 128.892029 181.99585 138.07222 189.280701 144.256271 193.395569 C 150.440323 197.510498 159.550293 203.109192 164.500656 205.837097 C 169.451019 208.565063 178.226028 212.900024 184.000656 215.470337 C 189.775299 218.040649 198.550003 221.737915 203.5 223.686523 C 208.449997 225.635193 218.350006 229.184814 225.5 231.574646 C 232.649994 233.964478 244.238434 237.509644 251.252075 239.45282 C 258.265717 241.395996 269.065735 244.370422 275.252075 246.062622 C 281.438446 247.754883 291.899994 250.962524 298.5 253.190796 C 305.100006 255.419067 316.186951 259.614136 323.137665 262.513184 C 330.088409 265.412231 343.112885 271.527649 352.080933 276.102905 C 361.049011 280.678223 374.037048 288.013489 380.943268 292.403442 C 387.849457 296.793396 398 303.760681 403.5 307.886353 C 409 312.011963 417.100006 318.378906 421.5 322.035156 C 425.899994 325.691345 434.225006 333.194336 440 338.708374 C 445.774994 344.222412 454.716766 353.489014 459.870605 359.300781 C 465.024475 365.112549 472.625275 374.284912 476.761322 379.683838 C 480.897369 385.082703 486.355591 392.644531 488.890717 396.487915 C 491.425812 400.331238 494.763153 405.647705 496.306976 408.302246 C 497.8508 410.956787 499.505432 412.987244 499.983887 412.814331 C 500.462341 412.641479 504.91626 406.361267 509.88147 398.858459 C 514.84668 391.355591 522.450378 380.780579 526.778564 375.358459 C 531.106812 369.936279 539.155579 360.549988 544.664734 354.5 C 550.173889 348.450012 558.769592 339.769409 563.766235 335.209778 C 568.762878 330.650146 575.927795 324.350159 579.688232 321.209778 C 583.44873 318.069397 589.894714 312.976318 594.012695 309.891846 C 598.130737 306.807373 605.775024 301.390198 611 297.853699 C 616.224976 294.317261 625.224976 288.654846 631 285.27063 C 636.775024 281.886414 648.025024 275.934631 656 272.044495 C 663.974976 268.154358 675.224976 263.104919 681 260.823547 C 686.775024 258.542175 696 255.161316 701.5 253.310425 C 707 251.459595 716 248.663757 721.5 247.097534 C 727 245.53125 735.325012 243.241272 740 242.008667 C 744.674988 240.776062 753 238.430481 758.5 236.796326 C 764 235.162109 773.674988 232.022888 780 229.82019 C 786.325012 227.617493 795.882813 224.0625 801.239502 221.920166 C 806.596252 219.777893 815.337891 215.988159 820.665405 213.498596 C 825.99292 211.009033 833.985168 206.889099 838.425903 204.34314 C 842.866638 201.79718 848.974976 198.112671 852 196.155273 C 855.025024 194.197937 860.200012 190.571228 863.5 188.095947 C 866.799988 185.620605 872.101929 181.356445 875.282043 178.619873 C 878.462097 175.883362 883.460327 170.68689 886.38916 167.072205 C 889.317993 163.457458 893.353577 158.086975 895.357117 155.137817 C 899 149.775574 899 149.775574 899 288.502808 C 899 427.230042 899 427.230042 896.25 425.482788 C 894.737488 424.52179 891.25 422.06189 888.5 420.016357 C 885.75 417.970825 880.799988 414.689941 877.5 412.725525 C 874.200012 410.761047 867.375793 407.108887 862.335144 404.609619 C 857.294434 402.110291 847.661621 398.24353 840.928833 396.016785 C 834.196045 393.790039 823.695251 391.063843 817.593689 389.958496 C 809.843445 388.554565 802.067871 387.940369 791.793884 387.920593 C 782.518677 387.90271 773.470886 388.508057 767.293884 389.559814 C 761.907227 390.47699 753.104248 392.532898 747.731567 394.12854 C 742.358948 395.724243 734 398.738342 729.156128 400.82666 C 724.312256 402.914978 716.558044 406.793457 711.924561 409.445496 C 707.291077 412.097595 699.900024 416.755371 695.5 419.796204 C 691.099976 422.836975 684.858826 427.513794 681.630737 430.189026 C 678.40271 432.864258 672.156372 438.30365 667.750122 442.27655 C 663.343872 446.249451 656.841125 452.875 653.299561 457 C 649.757996 461.125 644.470032 468.099976 641.548523 472.5 C 638.627014 476.900024 633.756409 485 630.724854 490.5 C 627.693359 496 622.874146 505.674988 620.015503 512 C 617.156799 518.325012 613.093201 527.775024 610.985168 533 C 608.877197 538.224976 605.345642 547.269409 603.13739 553.098633 C 600.929077 558.927856 597.533264 568.377808 595.591064 574.098633 C 593.648865 579.819336 590.438416 589.674988 588.456726 596 C 586.475037 602.325012 583.353943 612.450012 581.520935 618.5 C 579.687927 624.549988 576.798218 634.450012 575.099365 640.5 C 573.400452 646.549988 569.82135 659.825012 567.145813 670 C 564.470215 680.174988 559.985535 697.950012 557.17981 709.5 C 554.374084 721.049988 550.01355 739.724976 547.489624 751 C 544.965698 762.275024 541.099121 780.049988 538.897156 790.5 C 536.695251 800.950012 533.13562 818.333862 530.986938 829.130737 C 528.838257 839.927673 525.293823 858.377686 523.110474 870.130737 C 520.927063 881.88385 517.776184 899.150024 516.108459 908.5 C 514.440796 917.849976 510.827271 939.224976 508.078461 956 C 505.329651 972.775024 502.571625 989.537476 501.949493 993.25 C 501.327362 996.962524 500.506897 1000 500.12619 1000 Z M 463.742096 247.591248 C 463.607269 247.726074 459.758881 244.531189 455.190125 240.491455 C 450.621399 236.451782 443.417297 230.49762 439.181 227.26001 C 434.944702 224.0224 427.433472 218.665771 422.489319 215.356323 C 417.545197 212.046936 409.225006 206.804749 404 203.70697 C 398.774994 200.609192 387.975006 194.96228 380 191.158203 C 372.024994 187.354126 359.969696 182.149841 353.210419 179.593201 C 346.451172 177.03656 335.651154 173.578735 329.210419 171.90918 C 322.769684 170.239685 312.100006 167.761963 305.5 166.403198 C 298.899994 165.044495 287.879028 163.014404 281.008942 161.891968 C 274.138855 160.769531 268.288849 159.62207 268.008942 159.34198 C 267.729004 159.061951 267.5 127.632813 267.5 89.499512 C 267.5 51.366211 267.846619 19.819702 268.270294 19.396179 C 268.693939 18.972595 275.149323 19.856079 282.61554 21.359436 C 290.081757 22.862793 299.860138 25.230286 304.345245 26.620544 C 308.830353 28.010864 316.011444 30.479797 320.303192 32.107117 C 324.59494 33.734436 331.794952 36.778259 336.303192 38.871094 C 340.811432 40.963928 349.225006 45.485596 355 48.919189 C 360.774994 52.352844 368.875 57.690063 373 60.779846 C 377.125 63.869568 385.167389 70.920593 390.872009 76.44873 C 396.576599 81.976929 404.116394 90.167603 407.627106 94.650208 C 411.137817 99.132874 416.499054 106.764771 419.541016 111.610046 C 422.582947 116.455261 427.501404 125.387695 430.470917 131.459778 C 433.44043 137.531921 437.67627 147 439.883881 152.5 C 442.091492 158 445.73996 168.119263 447.991577 174.987244 C 450.243195 181.855286 453.223267 191.963257 454.613953 197.449463 C 456.004639 202.93573 458.219086 212.710754 459.534973 219.171753 C 460.850861 225.632813 462.390961 234.615173 462.957397 239.132568 C 463.523834 243.650024 463.876953 247.45636 463.742096 247.591248 Z M 538.894592 245.814392 C 536.02063 248.128845 536.02063 248.128845 536.596252 243.314392 C 536.912842 240.666504 538.286499 232.424988 539.648865 225 C 541.01123 217.575012 543.430603 206.325012 545.025146 200 C 546.619751 193.674988 549.566162 183.325012 551.572754 177 C 553.579346 170.674988 557.421631 159.979492 560.111145 153.232239 C 562.800598 146.484985 567.528931 135.909973 570.618469 129.732239 C 573.708069 123.554504 578.715027 114.674988 581.745178 110 C 584.775269 105.325012 590.065552 97.900024 593.501343 93.5 C 596.937134 89.099976 604.001709 81.393616 609.200378 76.374695 C 614.399048 71.355774 622.304626 64.541443 626.768433 61.23175 C 631.232178 57.922058 638.172852 53.179199 642.1922 50.691956 C 646.211487 48.204773 654.224976 43.803406 660 40.911194 C 665.775024 38.018982 673.875 34.335571 678 32.725891 C 682.125 31.116211 689.099976 28.705139 693.5 27.36792 C 697.900024 26.030762 706.224976 23.864319 712 22.55365 C 717.775024 21.242981 724.862488 19.86499 727.75 19.491455 C 733 18.812317 733 18.812317 733 88.937561 C 733 144.116028 732.733582 159.164673 731.75 159.540894 C 731.0625 159.803894 726.224976 160.706299 721 161.546326 C 715.775024 162.386353 706.775024 164.001404 701 165.135315 C 695.224976 166.269226 685.775024 168.298523 680 169.644836 C 674.224976 170.99115 665.450012 173.355469 660.5 174.898865 C 655.549988 176.442261 646.590637 179.647156 640.590271 182.020874 C 634.589905 184.394592 623.56488 189.375244 616.090271 193.08905 C 608.615601 196.802795 598.224976 202.430359 593 205.594666 C 587.775024 208.758972 579.900024 213.818542 575.5 216.838196 C 571.099976 219.857849 564.575012 224.592285 561 227.359192 C 557.424988 230.12616 551.635437 234.889771 548.134277 237.945007 C 544.633118 241.000244 540.47522 244.541504 538.894592 245.814392 Z"/>
</svg>
