<?xml version="1.0" encoding="UTF-8"?>
<!-- Generated by Pixelmator Pro 3.2.3 -->
<svg width="300" height="300" viewBox="0 0 300 300" xmlns="http://www.w3.org/2000/svg" xmlns:xlink="http://www.w3.org/1999/xlink">
    <g id="Female">
        <path id="Background-Hair" fill="#222222" fill-rule="evenodd" stroke="none" d="M 41 178 C 41 178 63.313412 170.812729 71.187744 162.743484 C 75.663971 158.156448 77.443359 151.625458 79.438316 145.376114 C 81.128426 140.081741 83.265579 131.053772 84.187561 125.31395 C 85.10955 119.574142 86.558334 104.781067 87.407097 92.44046 C 88.255852 80.099869 89.433479 66.715652 90.024033 62.697784 C 90.624779 58.61058 94.766258 41.515961 101 33 C 105.489761 26.866516 111.942085 21.821991 119 19 C 128.486588 15.20694 139.081802 12.558868 149.498169 11.949768 C 155.692612 11.587555 162.063858 12.193207 168 14 C 181.102493 17.988037 183 25 183 25 C 183 25 188.655685 24.706543 192 27 C 199.024796 31.817444 202.687302 43.194946 205 48 C 206.826691 51.795258 208.371567 58.61058 208.972305 62.697784 C 209.562866 66.715652 210.740479 80.099869 211.589249 92.44046 C 212.438004 104.781067 213.886795 119.574142 214.808762 125.31395 C 215.730759 131.053772 217.86792 140.081741 219.558029 145.376114 C 221.552979 151.625458 223.244843 159.116791 228 164 C 237.048569 173.292236 263 181 263 181 C 263 181 240.796005 197.359711 229 198 C 202.623352 199.431747 151 184 151 184 C 151 184 99.089798 201.920227 75 196 C 62.546955 192.939575 41 178 41 178 Z"/>
        <path id="Person" fill="#646464" fill-rule="evenodd" stroke="none" d="M 246.275009 278 L 52.724998 278 C 35.477325 278 31.019768 267.076965 31 257.243225 C 31.016092 253.208878 31.683002 249.203613 32.975002 245.382187 C 47.734161 203.09761 94.280937 172.239212 149.5 172.239212 C 204.719009 172.239212 251.261932 203.09761 266.024994 245.382187 C 267.317017 249.203613 267.983978 253.208878 268 257.243225 C 267.980255 267.076965 263.526611 278 246.275009 278 Z M 149.5 145.55191 C 118.413521 145.55191 93.212502 118.115387 93.212502 84.269958 C 93.212502 50.42453 118.413521 22.988007 149.5 22.988007 C 180.586472 22.988007 205.787506 50.42453 205.787506 84.269958 C 205.787506 118.115387 180.586472 145.55191 149.5 145.55191 Z"/>
        <path id="Foreground-Hair" fill="#222222" fill-rule="evenodd" stroke="none" d="M 97.009247 52.945236 C 107.0504 32.935913 107.0504 32.935913 116.913383 26.55603 C 126.776375 20.176147 126.776375 20.176147 136.669357 19.474762 C 142.832047 19.037842 150.071854 19.229523 155.869766 19.983063 C 162.83786 20.888733 166.348801 21.898926 169.838593 24.002289 C 172.402374 25.547516 177.517349 27.784149 181.205231 28.972534 C 187.328369 30.945679 188.171906 31.563293 190.922379 36.086945 C 192.578934 38.811493 194.919891 42.661682 196.124496 44.64296 C 198.314697 48.245255 198.314697 48.245255 188.349274 47.844986 C 180.196289 47.517517 177.44458 46.979889 173.219452 44.888901 C 168.055069 42.333069 168.055069 42.333069 165.277542 45.271545 C 163.749893 46.887695 159.859726 50.015366 156.632706 52.221909 C 153.405701 54.428467 148.354446 57.081207 145.4077 58.116913 C 141.679642 59.427216 137.532944 59.969452 131.774979 59.899597 C 127.22374 59.84436 120.574997 59.169357 117 58.399567 C 113.425003 57.629776 107.464577 56.087631 103.754623 54.972595 L 97.009247 52.945236 Z"/>
        <path id="Shirt" fill="#222222" fill-rule="evenodd" stroke="none" d="M 246.275009 278 L 52.724998 278 C 35.477325 278 31.019768 267.076965 31 257.243225 C 31.016092 253.208878 31.683002 249.203613 32.975002 245.382187 C 43.203098 216.078979 70.940132 186.799713 101.831429 180.238159 C 102.143463 180.17189 102.768478 180.04631 102.768478 180.04631 C 102.768478 180.04631 106.32019 215.831436 150 217 C 194.407898 218.188049 198.926498 180.721527 198.926498 180.721527 C 198.926498 180.721527 199.624222 180.73201 199.944321 180.852646 C 228.053436 191.446228 255.063416 213.985886 266.024994 245.382187 C 267.317017 249.203613 267.983978 253.208878 268 257.243225 C 267.980255 267.076965 263.526611 278 246.275009 278 Z"/>
    </g>
    <g id="Male">
        <path id="path1" fill="#646464" fill-rule="evenodd" stroke="none" visibility="hidden" d="M 246.275009 278 L 52.724998 278 C 35.477325 278 31.019768 267.076965 31 257.243225 C 31.016092 253.208878 31.683002 249.203613 32.975002 245.382187 C 47.734161 203.09761 94.280937 172.239212 149.5 172.239212 C 204.719009 172.239212 251.261932 203.09761 266.024994 245.382187 C 267.317017 249.203613 267.983978 253.208878 268 257.243225 C 267.980255 267.076965 263.526611 278 246.275009 278 Z M 149.5 145.55191 C 118.413521 145.55191 93.212502 118.115387 93.212502 84.269958 C 93.212502 50.42453 118.413521 22.988007 149.5 22.988007 C 180.586472 22.988007 205.787506 50.42453 205.787506 84.269958 C 205.787506 118.115387 180.586472 145.55191 149.5 145.55191 Z"/>
        <path id="path2" fill="#222222" fill-rule="evenodd" stroke="none" visibility="hidden" d="M 200.813705 54 C 200.813705 54 193.043381 33.397522 184.1539 26.941833 C 178.179153 22.602905 170.115982 20.755676 162.504288 19.932037 C 148.974274 18.467987 129.428131 20.159637 119.521088 23.04483 C 118.040718 23.475952 117.392212 25.522125 116.394516 26 C 115.474907 26.440491 113.976593 25.352661 113.130714 25.903259 C 109.000893 28.591461 105.724464 32.472382 103.051079 36.376587 C 99.396698 41.713318 96.052551 54.108887 96.052551 54.108887 C 96.052551 54.108887 93.511574 65.973892 93.001266 72 C 92.832474 73.993103 93.001266 78 93.001266 78 C 93.001266 78 96.052551 78 96.052551 78 C 96.052551 78 97.906845 61.41095 102.155144 53 C 106.40345 44.58905 113.045784 44.356232 114.68203 44.209808 C 123.792542 43.394531 157.523819 57.489395 173.352036 57 C 182.872513 56.705627 189.347031 50.046783 193.694016 54 C 197.661011 57.607666 201.830795 82 201.830795 82 C 201.830795 82 205.899185 82 205.899185 82 C 205.899185 82 206.126007 77.987534 205.899185 76 C 205.046295 68.52655 200.813705 54 200.813705 54 Z"/>
        <path id="path3" fill="#222222" fill-rule="evenodd" stroke="none" visibility="hidden" d="M 247.223785 278 L 51.776226 278 C 34.359459 278 29.8582 266.969879 29.83824 257.039703 C 29.854488 252.96582 30.527937 248.92131 31.832603 245.062408 C 40.301868 220.798187 66.805054 189.16124 99.514709 179.039215 C 106.156967 176.983765 116.681374 175 116.681374 175 C 116.681374 175 124.621368 190.108032 151.014709 190.147064 C 172.506363 190.178833 182.318619 175 182.318619 175 C 182.318619 175 187.354446 176.25824 190.397049 177.019623 C 229.387039 186.776428 257.094574 216.21167 267.167389 245.062408 C 268.472076 248.92131 269.145569 252.96582 269.161774 257.039703 C 269.141815 266.969879 264.644501 278 247.223785 278 Z"/>
    </g>
</svg>
